<svg id="Layer_1" data-name="Layer 1" xmlns="http://www.w3.org/2000/svg" viewBox="0 0 297.6 221.36"><defs><style>.cls-1{fill:none;}</style></defs><title>logos</title><path class="cls-1" d="M77,50.28c-22.82,0-41.39,16.13-41.39,41.7,0,25.27,18.57,41.4,41.39,41.4,23.45,0,42.32-16.13,42.32-41.4C119.33,66.41,100.46,50.28,77,50.28Zm.36,79.28A37.48,37.48,0,0,1,72.06,55a37.38,37.38,0,0,0,29.19,61,36.88,36.88,0,0,0,5.3-.54A37.32,37.32,0,0,1,77.37,129.56Z"/><rect x="161.03" y="100.59" width="76.93" height="36.52"/><rect x="161.03" y="184.34" width="110.31" height="36.52"/><rect x="161.03" y="16.85" width="110.31" height="36.52"/><polygon points="271.21 12.01 294.98 0 147.21 0 123.44 12.01 271.21 12.01"/><polygon points="294.62 167.07 184.61 167.07 160.84 179.08 270.85 179.08 294.62 167.07"/><polygon points="261.61 83.2 184.53 83.2 160.76 95.21 237.84 95.21 261.61 83.2"/><path d="M119.94,35.06A64,64,0,0,0,73.06,15.27C32.27,15.27,0,47.24,0,92c0,44.45,32.27,76.41,73.06,76.41a63.82,63.82,0,0,0,46.58-19.79v72.15h36.52V16.8H122.68ZM77,133.38c-22.82,0-41.39-16.13-41.39-41.4,0-25.57,18.57-41.7,41.39-41.7,23.45,0,42.32,16.13,42.32,41.7C119.33,117.25,100.46,133.38,77,133.38Z"/><polygon points="242.6 137.29 263.9 125.74 263.9 87.65 242.6 99.2 242.6 137.29"/><polygon points="275.67 52.46 296.96 40.91 296.96 2.82 275.67 14.38 275.67 52.46"/><polygon points="276.3 183.27 276.3 221.36 297.6 209.8 297.6 171.72 276.3 183.27"/><polygon points="160.92 89.63 182.22 78.75 182.22 59.03 160.92 59.03 160.92 89.63"/><polygon points="160.92 173.36 182.22 162.49 182.22 142.76 160.92 142.76 160.92 173.36"/><path d="M63.68,78.35A37.26,37.26,0,0,1,72.06,55a37.48,37.48,0,1,0,34.49,60.42,36.88,36.88,0,0,1-5.3.54A37.57,37.57,0,0,1,63.68,78.35Z"/><path d="M116.53,26.37l2.68-17.86h-.3l.32-.16,0-.25h.44l8.91-4.51c-14-2.15-59.9-7.13-87.62,15.22C67.3,3.38,104.05,13.28,116.53,26.37Z"/></svg>