<svg id="Layer_1" data-name="Layer 1" xmlns="http://www.w3.org/2000/svg" viewBox="0 0 208.24 15.27"><title>logos</title><path d="M11.56,15.08,11,14.44a7.38,7.38,0,0,1-3.47.83A7.44,7.44,0,0,1,0,7.64,7.45,7.45,0,0,1,7.52,0,7.45,7.45,0,0,1,15,7.64a7.66,7.66,0,0,1-1.94,5.2l2,2.24Zm-.42-4.42a5,5,0,0,0,.94-3A4.5,4.5,0,0,0,7.52,2.84,4.5,4.5,0,0,0,3,7.61a4.56,4.56,0,0,0,4.57,4.83A4.07,4.07,0,0,0,9,12.2L6.65,9.64h3.54Z"/><path d="M20.55.19h2.84V8c0,3.47,1.41,4.58,3.68,4.58S30.71,11.44,30.71,8V.19h2.84V8.46c0,4.19-2.5,6.81-6.5,6.81s-6.5-2.62-6.5-6.81Z"/><path d="M39,15.08V.19h6c2.81,0,4.61,1.66,4.61,3.83a3.16,3.16,0,0,1-1.21,2.86,3.55,3.55,0,0,1,2.18,3.55c0,3-2.13,4.65-5.7,4.65ZM41.83,2.79V5.84h2.81c1.37,0,2-.59,2-1.54s-.52-1.51-2-1.51Zm0,5.65v4h2.88c2,0,2.86-.76,2.86-2.05s-.87-2-2.86-2Z"/><path d="M56,.19h2.84V15.08H56Z"/><path d="M76,5.81a4.22,4.22,0,0,0-4.26-3A4.5,4.5,0,0,0,67.2,7.61a4.55,4.55,0,0,0,4.56,4.83,4.11,4.11,0,0,0,4.33-3.08h3.07c-.38,3.55-3.62,5.91-7.4,5.91a7.45,7.45,0,0,1-7.52-7.63A7.45,7.45,0,0,1,71.76,0c4,0,6.77,2.25,7.36,5.81Z"/><path d="M103.52,8.94H97.25v3.54h7.21v2.6h-10V.19h9.81v2.6h-7V6.34h6.27Z"/><path d="M115.62,15.08,112.74,8v7.11H109.9V.19h2.84L117,10.83,121.34.19h2.84V15.08h-2.84V8l-2.88,7.11Z"/><path d="M129.77,15.08V.19h5.95c2.82,0,4.61,1.66,4.61,3.83a3.16,3.16,0,0,1-1.2,2.86,3.54,3.54,0,0,1,2.17,3.55c0,3-2.12,4.65-5.69,4.65Zm2.84-12.29V5.84h2.81c1.37,0,2-.59,2-1.54s-.52-1.51-2-1.51Zm0,5.65v4h2.88c2,0,2.86-.76,2.86-2.05s-.88-2-2.86-2Z"/><path d="M150,12l-1.14,3.09H145.8L151.21.19h2.84l5.41,14.89h-3.07L155.25,12Zm4.3-2.6-1.68-4.64L151,9.39Z"/><path d="M175.5,10.9c0,2.67-2.51,4.37-5.77,4.37s-5.75-1.91-6-5.25h3.1a2.71,2.71,0,0,0,3,2.42c1.64,0,2.7-.6,2.7-1.54,0-2.82-8.56-.83-8.56-6.41C164,1.61,166.42,0,169.44,0c3.2,0,5.42,1.77,5.56,4.82h-3.1a2.23,2.23,0,0,0-2.5-2c-1.59,0-2.46.63-2.46,1.44C166.94,7.07,175.5,5.3,175.5,10.9Z"/><path d="M192.47,10.9c0,2.67-2.5,4.37-5.77,4.37s-5.74-1.91-6-5.25h3.1a2.71,2.71,0,0,0,3,2.42c1.63,0,2.7-.6,2.7-1.54,0-2.82-8.56-.83-8.56-6.41C181,1.61,183.4,0,186.42,0c3.19,0,5.42,1.77,5.56,4.82h-3.1a2.23,2.23,0,0,0-2.5-2c-1.59,0-2.46.63-2.46,1.44C183.92,7.07,192.47,5.3,192.47,10.9Z"/><path d="M203.61,8.2v6.88h-2.84V8.2l-4.63-8h3l3.1,5.34,3.1-5.34h3Z"/></svg>